<svg xmlns="http://www.w3.org/2000/svg" viewBox="0 0 564 340" enable-background="new 0 0 564 340"><path fill="#f3f3f3" d="m263.4 61.3h98.5v245.2h-98.5z"/><g fill="#333"><path d="m26.2 307.6c-1.6 0-1.9-1.7-1.9-2.9 0-1.2.3-2.9 1.9-2.9s1.9 1.7 1.9 2.9c0 1.1-.3 2.9-1.9 2.9m0-5.2c-.8 0-1.2.8-1.2 2.3s.4 2.3 1.2 2.3 1.2-.8 1.2-2.3-.4-2.3-1.2-2.3"/><path d="m24.3 266.3c0-1.8 1.3-2 1.9-2 1 0 1.8.6 1.8 1.7 0 1-.7 1.4-1.5 1.9l-.6.3c-.8.4-.9.9-1 1.1h3.1v.7h-3.8c0-1.2.6-1.8 1.3-2.2l.7-.4c.6-.3 1-.6 1-1.3 0-.4-.3-1-1.1-1-1.1 0-1.1 1-1.1 1.4h-.7z"/><path d="m27.3 231.9v1.4h-.7v-1.4h-2.5v-.7l2.6-3.6h.6v3.6h.8v.6h-.8zm-2.5-.6h1.8v-2.6l-1.8 2.6"/><path d="m27.3 190.9c-.1-.5-.4-.9-1-.9-1.1 0-1.3 1.5-1.3 2.1.2-.3.6-.7 1.3-.7.7 0 1.8.4 1.8 1.8 0 .6-.2 1-.5 1.4-.3.3-.6.5-1.4.5-.4 0-1-.2-1.4-.8-.3-.5-.4-1.2-.4-2 0-1.2.4-3 2.1-3 .6 0 1.6.4 1.6 1.5h-.8zm-1 3.6c.7 0 1.1-.5 1.1-1.3 0-.5-.3-1.2-1.1-1.2-.8 0-1.2.6-1.2 1.2 0 .7.3 1.3 1.2 1.3"/><path d="m25.8 154.4c.8.3.9.9.9 1.4 0 .9-.6 1.8-1.9 1.8-.3 0-.9-.1-1.4-.4-.6-.5-.6-1.1-.6-1.3 0-.7.4-1.1 1-1.4-.5-.2-.8-.6-.8-1.1 0-.6.4-1.5 1.7-1.5 1.2 0 1.7.8 1.7 1.4.1.7-.3.9-.6 1.1m-2.1 1.4c0 .4.2 1.1 1.2 1.1.5 0 1.1-.2 1.1-1.1 0-.8-.5-1.1-1.2-1.1-.8 0-1.1.5-1.1 1.1m2.1-2.6c0-.3-.2-.8-1-.8-.8 0-.9.5-.9.9 0 .5.5.9 1 .9.5-.1.9-.5.9-1"/><path d="m21.5 119.5h-.8v-4h-1.3v-.6c.9-.1 1.3-.2 1.5-1.1h.6v5.7"/><path d="m24.8 119.6c-1.6 0-1.9-1.7-1.9-2.9 0-1.2.3-2.9 1.9-2.9 1.6 0 1.9 1.7 1.9 2.9.1 1.2-.2 2.9-1.9 2.9m0-5.1c-.8 0-1.2.8-1.2 2.3s.4 2.3 1.2 2.3 1.2-.8 1.2-2.3-.4-2.3-1.2-2.3"/><path d="m21.4 82.2h-.8v-4h-1.3v-.6c.9-.1 1.3-.2 1.5-1.1h.6v5.7"/><path d="m23 78.5c0-1.8 1.3-2 1.9-2 1 0 1.8.6 1.8 1.7 0 1-.7 1.4-1.5 1.9l-.6.3c-.8.4-.9.9-1 1.1h3.1v.7h-3.8c0-1.2.6-1.8 1.3-2.2l.7-.4c.6-.3 1-.6 1-1.3 0-.4-.3-1-1.1-1-1.1 0-1.1 1-1.1 1.4h-.7z"/><path d="m9.2 205.8c-1.1 0-1.5 1-1.5 1.8 0 .6.2 1.6 1.3 1.6.6 0 .8-.4.9-.8l.5-2c.2-.9.8-1.6 1.9-1.6 1.7 0 2.2 1.6 2.2 2.8 0 1.3-.4 1.8-.7 2.2-.5.6-1.1.7-1.8.7v-.9c1.3 0 1.7-1.1 1.7-2 0-.7-.2-1.9-1.2-1.9-.7 0-1 .3-1.3 1.5l-.3 1.5c-.1.5-.4 1.5-1.7 1.5-1.1 0-2.2-.7-2.2-2.5 0-2.5 1.5-2.8 2.3-2.8v.9z"/><path d="m9.7 202.5h3.4c.4 0 .4-.3.4-.5v-.3h.7c0 .3.1.6.1.7 0 .9-.5 1.1-1.1 1.1h-3.5v.7h-.7v-.7h-1.4v-.9h1.4v-.8h.7v.7"/><path d="m8.9 198.9c0-1.7 1.4-2.4 2.8-2.4s2.8.8 2.8 2.4c0 1.7-1.4 2.4-2.8 2.4s-2.8-.7-2.8-2.4m4.7 0c0-1.3-1.3-1.5-2-1.5s-2 .3-2 1.5 1.3 1.5 2 1.5 2-.2 2-1.5"/><path d="m14.2 194.5v.9h-5.2v-.8h.9c-.6-.3-1-.8-1-1.5 0-.1 0-.2 0-.2h.9v.3c0 .8.6 1.3 1.4 1.3h3"/><path d="m9 188.6v-1c1.7.6 3.4 1.2 5.1 1.9 2.1.8 2.2.9 2.2 2 0 .1 0 .2-.1.4h-.8c0-.1.1-.3.1-.5 0-.5-.1-.5-1.2-.9l-5.3 1.9v-1l4.3-1.4-4.3-1.4"/><path d="m14.2 182.9v1h-7.1v-3.2c0-1.3.9-2.1 2-2.1 1 0 2.1.6 2.1 2.1v2.3h3zm-3.8 0v-1.9c0-.9-.3-1.5-1.3-1.5-.9 0-1.2.6-1.2 1.4v2h2.5"/><path d="m8.9 175.8c0-1.7 1.4-2.4 2.8-2.4s2.8.8 2.8 2.4-1.4 2.4-2.8 2.4-2.8-.8-2.8-2.4m4.7 0c0-1.3-1.3-1.5-2-1.5s-2 .3-2 1.5 1.3 1.5 2 1.5 2-.3 2-1.5"/><path d="m8.1 172.3h-1v-.9h1v.9m6.1-.9v.9h-5.2v-.9h5.2"/><path d="m14.2 165.8v.9h-3.2c-.9 0-1.4.3-1.4 1.1 0 .5.3 1.4 1.7 1.4h2.8v.9h-5.1v-.8h.7c-.3-.2-.9-.7-.9-1.6 0-.8.3-1.8 1.8-1.8h3.6z"/><path d="m9.7 163.5h3.4c.4 0 .4-.4.4-.5v-.3h.7c0 .3.1.6.1.7 0 .9-.5 1.1-1.1 1.1h-3.5v.7h-.7v-.7h-1.4v-.9h1.4v-.8h.7v.7"/><path d="m10.5 158.8c-.3 0-.9.1-.9 1.2 0 .3.1 1 .7 1 .4 0 .5-.3.7-.9l.2-.9c.3-1.1.7-1.5 1.4-1.5 1.1 0 1.7.9 1.7 2.1 0 2.1-1.2 2.2-1.8 2.2v-.8c.4 0 1.1-.1 1.1-1.4 0-.6-.2-1.2-.8-1.2-.4 0-.6.3-.8 1l-.2 1c-.2.7-.5 1.2-1.3 1.2-1.1 0-1.7-.9-1.7-2 0-1.9 1.4-2 1.6-2v1z"/><path d="m466.5 72.8h2.5v3.1h-.5l-.2-.7c-.4.5-1.1.9-1.9.9-1 0-1.5-.4-1.8-.6-.9-.8-.9-1.8-.9-2.4 0-1.4.8-3 2.7-3 1.1 0 2.3.6 2.4 1.9h-.8c-.2-1-1.1-1.2-1.7-1.2-1 0-1.9.8-1.9 2.3 0 1.2.4 2.4 1.9 2.4.3 0 .8 0 1.2-.4.5-.4.6-.9.6-1.5h-1.8v-.8z"/><path d="m472.9 75.9v-.6c-.3.5-.7.7-1.3.7-.6 0-1.4-.3-1.4-1.3v-3h.7v2.8c0 .7.4.9.8.9.9 0 1.2-.8 1.2-1.4v-2.3h.7v4.2h-.7"/><path d="m474.6 71v-.8h.7v.8h-.7m.7 4.9h-.7v-4.2h.7v4.2"/><path d="m479.8 75.9h-.7v-.6c-.3.6-.8.7-1.2.7-1.4 0-1.8-1.3-1.8-2.3 0-1.2.6-2.1 1.7-2.1.8 0 1.1.5 1.2.7v-.1-2.1h.7v5.8zm-1.8-.5c.4 0 1.1-.3 1.1-1.4 0-.7-.1-1.8-1.1-1.8-1.1 0-1.1 1-1.1 1.6 0 .9.3 1.6 1.1 1.6"/><path d="m484.4 74.6c0 .2-.2.8-.7 1.1-.2.1-.5.3-1.1.3-1.2 0-1.9-.9-1.9-2.1 0-1.3.6-2.3 2-2.3 1.2 0 1.8 1 1.8 2.4h-3.1c0 .9.4 1.4 1.2 1.4.7 0 1.1-.5 1.1-.8h.7m-.7-1.1c0-.6-.3-1.2-1.2-1.2-.6 0-1.2.6-1.2 1.2h2.4"/><path d="m486 75.9h-.7v-5.7h.7v5.7"/><path d="m487.1 71v-.8h.7v.8h-.7m.7 4.9h-.7v-4.2h.7v4.2"/><path d="m492.2 75.9h-.7v-2.6c0-.7-.2-1.1-.9-1.1-.4 0-1.1.3-1.1 1.4v2.3h-.7v-4.2h.7v.6c.2-.2.5-.7 1.3-.7.6 0 1.5.3 1.5 1.5v2.8z"/><path d="m496.8 74.6c0 .2-.2.8-.7 1.1-.2.1-.5.3-1.1.3-1.2 0-1.9-.9-1.9-2.1 0-1.3.6-2.3 2-2.3 1.2 0 1.8 1 1.8 2.4h-3.1c0 .9.4 1.4 1.2 1.4.7 0 1.1-.5 1.1-.8h.7m-.7-1.1c0-.6-.3-1.2-1.2-1.2-.6 0-1.2.6-1.2 1.2h2.4"/><path d="m464.9 91.3h-.8v-5.7h2.7c.9 0 1.9.3 1.9 1.5 0 .8-.4 1.2-.8 1.4.3.1.7.3.7 1.1v1c0 .3 0 .4.3.6v.1h-1c-.1-.4-.1-1.2-.1-1.4 0-.5-.1-1-1-1h-1.9v2.4m0-3.1h1.8c.6 0 1.2-.1 1.2-1 0-.9-.6-1-1-1h-1.9v2z"/><path d="m473.1 90c0 .2-.2.8-.7 1.1-.2.1-.5.3-1.1.3-1.2 0-1.9-.9-1.9-2.1 0-1.3.6-2.3 2-2.3 1.2 0 1.8 1 1.8 2.4h-3.1c0 .9.4 1.4 1.2 1.4.7 0 1.1-.5 1.1-.8h.7m-.7-1.1c0-.6-.3-1.2-1.2-1.2-.6 0-1.2.6-1.2 1.2h2.4"/><path d="m474 87.2h.7v.6c.2-.2.5-.7 1.3-.7s1 .5 1.1.7c.4-.4.6-.7 1.3-.7.4 0 1.3.2 1.3 1.4v2.9h-.7v-2.7c0-.6-.2-1-.8-1-.6 0-1 .6-1 1.1v2.6h-.7v-2.9c0-.4-.1-.8-.7-.8-.4 0-1.1.3-1.1 1.4v2.3h-.7v-4.2"/><path d="m480.6 88.4c0-1 .7-1.4 1.7-1.4.3 0 1.6.1 1.6 1.2v2.4c0 .2.1.2.2.2.1 0 .2 0 .2 0v.5c-.1 0-.2.1-.4.1-.6 0-.7-.3-.7-.6-.3.3-.7.7-1.5.7-.8 0-1.3-.5-1.3-1.2 0-.4.1-1.2 1.3-1.3l1.2-.1c.2 0 .4-.1.4-.5 0-.4-.3-.7-1-.7-.8 0-.9.5-1 .8h-.7zm2.6.8c-.1.1-.3.2-1.2.3-.3 0-.9.2-.9.7 0 .5.2.7.8.7.7 0 1.3-.4 1.3-1v-.7"/><path d="m485.1 86.4v-.8h.7v.8h-.7m.7 4.9h-.7v-4.2h.7v4.2"/><path d="m490.3 91.3h-.7v-2.6c0-.7-.2-1.1-.9-1.1-.4 0-1.1.3-1.1 1.4v2.3h-.7v-4.2h.7v.6c.2-.2.5-.7 1.3-.7.6 0 1.5.3 1.5 1.5v2.8z"/><path d="m491.3 86.4v-.8h.7v.8h-.7m.7 4.9h-.7v-4.2h.7v4.2"/><path d="m496.5 91.3h-.7v-2.6c0-.7-.2-1.1-.9-1.1-.4 0-1.1.3-1.1 1.4v2.3h-.7v-4.2h.7v.6c.2-.2.5-.7 1.3-.7.6 0 1.5.3 1.5 1.5v2.8z"/><path d="m501 91c0 .6 0 2.1-1.9 2.1-.5 0-1.5-.1-1.6-1.2h.7c.1.7.8.7.9.7 1.2 0 1.2-1 1.2-1.5v-.2c-.2.3-.6.6-1.1.6-1.4 0-1.8-1.3-1.8-2.3 0-1.2.6-2.1 1.7-2.1.8 0 1.1.5 1.2.7v-.6h.7v3.8m-1.8-.2c.4 0 1.1-.3 1.1-1.4 0-.7-.1-1.8-1.1-1.8-1.1 0-1.1 1-1.1 1.6 0 .9.3 1.6 1.1 1.6"/><path d="m506.9 87.2h.8l-1.6 4.2h-.8l-1.5-4.2h.8l1.1 3.4 1.2-3.4"/><path d="m508 88.4c0-1 .7-1.4 1.7-1.4.3 0 1.6.1 1.6 1.2v2.4c0 .2.1.2.2.2.1 0 .2 0 .2 0v.5c-.1 0-.2.1-.4.1-.6 0-.7-.3-.7-.6-.3.3-.7.7-1.5.7-.8 0-1.3-.5-1.3-1.2 0-.4.1-1.2 1.3-1.3l1.2-.1c.2 0 .4-.1.4-.5 0-.4-.3-.7-1-.7-.8 0-.9.5-1 .8h-.7zm2.6.8c-.1.1-.3.2-1.2.3-.3 0-.9.2-.9.7 0 .5.2.7.8.7.7 0 1.3-.4 1.3-1v-.7"/><path d="m513.2 91.3h-.7v-5.7h.7v5.7"/><path d="m517 91.3v-.6c-.3.5-.7.7-1.3.7-.6 0-1.4-.3-1.4-1.3v-3h.7v2.8c0 .7.4.9.8.9.9 0 1.2-.8 1.2-1.4v-2.3h.7v4.2h-.7"/><path d="m522.2 90c0 .2-.2.8-.7 1.1-.2.1-.5.3-1.1.3-1.2 0-1.9-.9-1.9-2.1 0-1.3.6-2.3 2-2.3 1.2 0 1.8 1 1.8 2.4h-3.1c0 .9.4 1.4 1.2 1.4.7 0 1.1-.5 1.1-.8h.7m-.6-1.1c0-.6-.3-1.2-1.2-1.2-.6 0-1.2.6-1.2 1.2h2.4"/><path d="m525.5 88.3c0-.3-.1-.7-1-.7-.2 0-.8.1-.8.6 0 .3.2.4.8.6l.7.2c.9.2 1.2.5 1.2 1.1 0 .9-.7 1.4-1.7 1.4-1.7 0-1.8-1-1.8-1.5h.7c0 .3.1.9 1.1.9.5 0 1-.2 1-.7 0-.3-.2-.4-.8-.6l-.8-.2c-.6-.1-1-.4-1-1 0-.9.8-1.3 1.6-1.3 1.5 0 1.6 1.1 1.6 1.3h-.8z"/><path d="m467.8 101h.8v5.7h-.9l-2.9-4.6v4.6h-.8v-5.7h.9l2.9 4.6v-4.6"/><path d="m471.4 102.5c1.3 0 1.9 1.1 1.9 2.2 0 1.1-.6 2.2-1.9 2.2s-1.9-1.1-1.9-2.2c0-1.1.6-2.2 1.9-2.2m0 3.8c1 0 1.2-1 1.2-1.6s-.2-1.6-1.2-1.6c-1 0-1.2 1-1.2 1.6s.2 1.6 1.2 1.6"/><path d="m477.5 106.8h-.7v-2.6c0-.7-.2-1.1-.9-1.1-.4 0-1.1.3-1.1 1.4v2.3h-.7v-4.2h.7v.6c.2-.2.5-.7 1.3-.7.6 0 1.5.3 1.5 1.5v2.8z"/><path d="m480.4 104.9h-2v-.7h2v.7"/><path d="m482.8 106.8h-.7l-1.2-4.2h.8l.8 3.3.8-3.3h.8l.8 3.3.8-3.3h.7l-1.2 4.2h-.7l-.8-3.2-.9 3.2"/><path d="m488.7 102.5c1.3 0 1.9 1.1 1.9 2.2 0 1.1-.6 2.2-1.9 2.2s-1.9-1.1-1.9-2.2c-.1-1.1.5-2.2 1.9-2.2m0 3.8c1 0 1.2-1 1.2-1.6s-.2-1.6-1.2-1.6c-1 0-1.2 1-1.2 1.6s.1 1.6 1.2 1.6"/><path d="m492.2 106.8h-.7v-4.2h.7v.7c.3-.5.6-.8 1.2-.8.1 0 .1 0 .2 0v.7h-.3c-.7 0-1.1.5-1.1 1.1v2.5"/><path d="m497.7 106.8h-.9l-1.3-2.1-.6.5v1.6h-.7v-5.8h.7v3.3l1.8-1.8h.9l-1.6 1.6 1.7 2.7"/><path d="m498.2 101.8v-.8h.7v.8h-.7m.7 5h-.7v-4.2h.7v4.2"/><path d="m503.4 106.8h-.7v-2.6c0-.7-.2-1.1-.9-1.1-.4 0-1.1.3-1.1 1.4v2.3h-.7v-4.2h.7v.6c.2-.2.5-.7 1.3-.7.6 0 1.5.3 1.5 1.5v2.8z"/><path d="m507.9 106.4c0 .6 0 2.1-1.9 2.1-.5 0-1.5-.1-1.6-1.2h.7c.1.7.8.7.9.7 1.2 0 1.2-1 1.2-1.5v-.2c-.2.3-.6.6-1.1.6-1.4 0-1.8-1.3-1.8-2.3 0-1.2.6-2.1 1.7-2.1.8 0 1.1.5 1.2.7v-.6h.7v3.8m-1.8-.1c.4 0 1.1-.3 1.1-1.4 0-.7-.1-1.8-1.1-1.8-1.1 0-1.1 1-1.1 1.6-.1.9.3 1.6 1.1 1.6"/><path d="m514.5 106.8h-.7v-.6c-.3.6-.8.7-1.2.7-1.4 0-1.8-1.3-1.8-2.3 0-1.2.6-2.1 1.7-2.1.8 0 1.1.5 1.2.7v-.1-2.1h.7v5.8zm-1.8-.5c.4 0 1.1-.3 1.1-1.4 0-.7-.1-1.8-1.1-1.8-1.1 0-1.1 1-1.1 1.6 0 .9.3 1.6 1.1 1.6"/><path d="m515.5 103.9c0-1 .7-1.4 1.7-1.4.3 0 1.6.1 1.6 1.2v2.4c0 .2.1.2.2.2.1 0 .2 0 .2 0v.5c-.1 0-.2.1-.4.1-.6 0-.7-.3-.7-.6-.3.3-.7.7-1.5.7-.8 0-1.3-.5-1.3-1.2 0-.4.1-1.2 1.3-1.3l1.2-.1c.2 0 .4-.1.4-.5 0-.4-.3-.7-1-.7-.8 0-.9.5-1 .8h-.7zm2.6.7c-.1.1-.3.2-1.2.3-.3 0-.9.2-.9.7 0 .5.2.7.8.7.7 0 1.3-.4 1.3-1v-.7"/><path d="m522.3 102.6h.8c-.5 1.4-1 2.7-1.5 4.1-.7 1.7-.7 1.8-1.6 1.8-.1 0-.2 0-.3-.1v-.6c.1 0 .2.1.4.1.4 0 .4-.1.7-1l-1.6-4.3h.8l1.1 3.4 1.2-3.4"/><path d="m525.9 103.8c0-.3-.1-.7-1-.7-.2 0-.8.1-.8.6 0 .3.2.4.8.6l.7.2c.9.2 1.2.5 1.2 1.1 0 .9-.7 1.4-1.7 1.4-1.7 0-1.8-1-1.8-1.5h.7c0 .3.1.9 1.1.9.5 0 1-.2 1-.7 0-.3-.2-.4-.8-.6l-.8-.2c-.6-.1-1-.4-1-1 0-.9.8-1.3 1.6-1.3 1.5 0 1.6 1.1 1.6 1.3h-.8z"/></g><path fill="#e9e9e9" d="m448.7 99.7h10.5v10.5h-10.5z"/><path fill="#d04537" d="m448.7 84h10.5v10.5h-10.5z"/><path fill="#717171" d="m448.7 68.2h10.5v10.5h-10.5z"/><g fill="none" stroke-miterlimit="10"><path stroke="#cdcccc" stroke-width="1.139" d="m33.9 61.6v245.1h525.5"/><path stroke="#d04537" d="m492.4 269.1l-114.5.1v-52h-236.5v-61.3h-95.5v-37.9h-5.5v-14.8h-6"/><path stroke="#717171" d="m33.9 103.2l215 90.4h96l215 83.6"/></g><g fill="#205281"><path d="m17.4 16c2.5 0 3.9 1.5 3.9 3.4 0 1.3-.8 2.4-1.9 2.7 1.2.3 2.3 1.4 2.3 3 0 2.1-1.5 3.6-3.9 3.6h-4.9v-12.7h4.5m-.4 5.3c1.1 0 1.8-.6 1.8-1.6s-.6-1.6-1.8-1.6h-1.7v3.2h1.7m.2 5.4c1.2 0 1.9-.6 1.9-1.7 0-1-.6-1.7-1.9-1.7h-2.1v3.4h2.1"/><path d="m29.1 27.9c-.5.8-1.5 1.2-2.4 1.2-2.1 0-3.4-1.6-3.4-3.5v-5.6h2.4v5.1c0 1 .5 1.8 1.6 1.8 1.1 0 1.7-.7 1.7-1.7v-5.2h2.4v7.3c0 .7.1 1.3.1 1.6h-2.3c0-.3-.1-.7-.1-1"/><path d="m39.4 22.3c-.3-.1-.5-.1-.7-.1-1.2 0-2.3.6-2.3 2.5v4.1h-2.4v-8.8h2.3v1.3c.5-1.2 1.8-1.4 2.5-1.4.2 0 .4 0 .6 0v2.4"/><path d="m43.5 28.8h-2.4v-8.8h2.3v1.1c.5-.9 1.6-1.3 2.6-1.3 2.2 0 3.2 1.6 3.2 3.5v5.6h-2.4v-5.2c0-1-.5-1.8-1.6-1.8-1 0-1.7.8-1.7 1.8v5.1"/><path d="m60 27.2c0 .6 0 1.2.1 1.6h-2.3c0-.2-.1-.6-.1-1-.4.7-1.3 1.2-2.5 1.2-2.5 0-4.3-2-4.3-4.7 0-2.6 1.7-4.6 4.2-4.6 1.5 0 2.3.6 2.5 1.1v-5.1h2.4v11.5m-4.5-.3c1.2 0 2.2-.9 2.2-2.5 0-1.6-1-2.5-2.2-2.5-1.2 0-2.2.9-2.2 2.5s1 2.5 2.2 2.5"/><path d="m71.2 24.4c0 2.7-2 4.7-4.6 4.7-2.6 0-4.6-2-4.6-4.7 0-2.7 2-4.7 4.6-4.7 2.6 0 4.6 1.9 4.6 4.7m-2.4 0c0-1.7-1.1-2.5-2.3-2.5-1.2 0-2.3.8-2.3 2.5 0 1.7 1.1 2.5 2.3 2.5 1.3 0 2.3-.8 2.3-2.5"/><path d="m80.4 20l1.9 5.7 1.7-5.7h2.4l-2.8 8.9h-2.4l-2.1-6-2 6h-2.4l-2.9-8.9h2.5l1.6 5.7 1.9-5.7h2.6"/><path d="m90.2 28.8h-2.4v-8.8h2.3v1.1c.5-.9 1.6-1.3 2.6-1.3 2.2 0 3.2 1.6 3.2 3.5v5.6h-2.4v-5.2c0-1-.5-1.8-1.6-1.8-1 0-1.7.8-1.7 1.8v5.1"/><path d="m102.2 22.4c0-4.1 3.1-6.7 6.5-6.7 3.5 0 5.3 2.2 5.9 4.2l-2.3.7c-.3-1.2-1.3-2.6-3.5-2.6-1.9 0-3.9 1.4-3.9 4.3 0 2.7 1.9 4.2 4 4.2 2.2 0 3.2-1.4 3.6-2.6l2.3.7c-.5 2-2.3 4.3-5.9 4.3-3.7.2-6.7-2.4-6.7-6.5"/><path d="m118.8 28.8h-2.4v-13h2.4v4.9c.6-.7 1.5-1 2.4-1 2.3 0 3.3 1.6 3.3 3.5v5.6h-2.4v-5.2c0-1-.5-1.8-1.6-1.8-1 0-1.6.8-1.7 1.7v5.3"/><path d="m129 23.7l2.2-.3c.5-.1.7-.3.7-.6 0-.6-.5-1.2-1.5-1.2-1 0-1.6.7-1.7 1.4l-2.1-.5c.1-1.4 1.4-2.9 3.8-2.9 2.8 0 3.9 1.6 3.9 3.4v4.4c0 .5.1 1.1.1 1.4h-2.2c-.1-.2-.1-.7-.1-1.1-.5.7-1.3 1.3-2.6 1.3-1.9 0-3-1.3-3-2.7-.2-1.5 1-2.4 2.5-2.6m2.8 1.5v-.4l-2 .3c-.6.1-1.1.4-1.1 1.1 0 .5.4 1 1.2 1 1 .1 1.9-.4 1.9-2"/><path d="m142 22.3c-.3-.1-.5-.1-.7-.1-1.2 0-2.3.6-2.3 2.5v4.1h-2.4v-8.8h2.3v1.3c.5-1.2 1.8-1.4 2.5-1.4.2 0 .4 0 .6 0v2.4"/><path d="m147 20h1.8v2.1h-1.8v3.7c0 .8.4 1 1 1 .3 0 .6 0 .7-.1v2c-.2.1-.6.2-1.4.2-1.7 0-2.8-1-2.8-2.7v-4.1h-1.5v-2.1h.5c.9 0 1.4-.6 1.4-1.4v-1.2h2.2v2.6z"/></g><g fill="#333"><path d="m109.9 319.7v.5c0 .9.4 1.2 1.1 1.2.9 0 1.1-.5 1.1-1.2v-5.3h1v5.2c0 1.7-1.1 2.1-2.1 2.1-1.7 0-2-1.1-2-1.8v-.7h.9"/><path d="m117.7 322v-.8c-.4.6-.8.9-1.7.9-.8 0-1.7-.4-1.7-1.6v-3.8h.9v3.5c0 .9.4 1.1 1 1.1 1.1 0 1.4-1 1.4-1.7v-2.9h.9v5.2h-.8z"/><path d="m120.8 322h-.9v-7.2h.9v7.2"/><path d="m124.6 317.5c0-2.3 1.7-2.5 2.4-2.5 1.2 0 2.2.8 2.2 2.1 0 1.3-.8 1.8-1.9 2.3l-.7.4c-1 .5-1.2 1.1-1.2 1.3h3.8v.8h-4.8c.1-1.5.7-2.2 1.6-2.8l.9-.5c.7-.4 1.3-.7 1.3-1.6 0-.6-.4-1.3-1.4-1.3-1.3 0-1.4 1.2-1.4 1.7h-.8z"/><path d="m134 320.3v1.7h-.9v-1.7h-3.1v-.9l3.2-4.5h.7v4.6h1v.8h-.9m-3.2-.7h2.3v-3.2l-2.3 3.2"/><path d="m206.7 319.7v.5c0 .9.4 1.2 1.1 1.2.9 0 1.1-.5 1.1-1.2v-5.3h1v5.2c0 1.7-1.1 2.1-2.1 2.1-1.7 0-2-1.1-2-1.8v-.7h.9"/><path d="m214.5 322v-.8c-.4.6-.8.9-1.7.9-.8 0-1.7-.4-1.7-1.6v-3.8h.9v3.5c0 .9.4 1.1 1 1.1 1.1 0 1.4-1 1.4-1.7v-2.9h.9v5.2h-.8z"/><path d="m217.5 322h-.9v-7.2h.9v7.2"/><path d="m221.4 317.5c0-2.3 1.7-2.5 2.4-2.5 1.2 0 2.2.8 2.2 2.1 0 1.3-.8 1.8-1.9 2.3l-.7.4c-1 .5-1.2 1.1-1.2 1.3h3.8v.8h-4.8c.1-1.5.7-2.2 1.6-2.8l.9-.5c.7-.4 1.3-.7 1.3-1.6 0-.6-.4-1.3-1.4-1.3-1.3 0-1.4 1.2-1.4 1.7h-.8z"/><path d="m230.7 316.9c-.1-.6-.4-1.1-1.2-1.1-1.4 0-1.7 1.9-1.7 2.6.2-.4.7-.9 1.7-.9.9 0 2.2.5 2.2 2.2 0 .7-.2 1.2-.7 1.8-.4.4-.8.7-1.8.7-.5 0-1.3-.2-1.8-1-.4-.7-.5-1.5-.5-2.4 0-1.5.5-3.8 2.6-3.8.8 0 2 .4 2 1.9h-.8m-1.3 4.5c.8 0 1.4-.7 1.4-1.6 0-.6-.3-1.5-1.4-1.5-1 0-1.4.7-1.4 1.5-.1.8.4 1.6 1.4 1.6"/><path d="m300.9 319.7v.5c0 .9.4 1.2 1.1 1.2.9 0 1.1-.5 1.1-1.2v-5.3h1v5.2c0 1.7-1.1 2.1-2.1 2.1-1.7 0-2-1.1-2-1.8v-.7h.9"/><path d="m308.7 322v-.8c-.4.6-.8.9-1.7.9-.8 0-1.7-.4-1.7-1.6v-3.8h.9v3.5c0 .9.4 1.1 1 1.1 1.1 0 1.4-1 1.4-1.7v-2.9h.9v5.2h-.8z"/><path d="m311.8 322h-.9v-7.2h.9v7.2"/><path d="m315.6 317.5c0-2.3 1.7-2.5 2.4-2.5 1.2 0 2.2.8 2.2 2.1 0 1.3-.8 1.8-1.9 2.3l-.7.4c-1 .5-1.2 1.1-1.2 1.3h3.8v.8h-4.8c.1-1.5.7-2.2 1.6-2.8l.9-.5c.7-.4 1.3-.7 1.3-1.6 0-.6-.4-1.3-1.4-1.3-1.3 0-1.4 1.2-1.4 1.7h-.8z"/><path d="m324.8 318.3c.9.4 1.1 1.2 1.1 1.7 0 1.1-.7 2.2-2.4 2.2-.4 0-1.1-.1-1.7-.5-.7-.6-.7-1.3-.7-1.7 0-.9.4-1.4 1.2-1.7-.6-.2-1-.7-1-1.4 0-.7.5-1.9 2.1-1.9 1.6 0 2.2 1 2.2 1.8.1 1-.5 1.3-.8 1.5m-2.7 1.7c0 .6.3 1.4 1.5 1.4.6 0 1.4-.2 1.4-1.3 0-1-.7-1.4-1.5-1.4-1 0-1.4.7-1.4 1.3m2.7-3.2c0-.4-.3-1-1.3-1-.9 0-1.2.7-1.2 1.1 0 .7.6 1.1 1.2 1.1.8 0 1.3-.5 1.3-1.2"/><path d="m394.7 319.7v.5c0 .9.4 1.2 1.1 1.2.9 0 1.1-.5 1.1-1.2v-5.3h1v5.2c0 1.7-1.1 2.1-2.1 2.1-1.7 0-2-1.1-2-1.8v-.7h.9"/><path d="m402.5 322v-.8c-.4.6-.8.9-1.7.9-.8 0-1.7-.4-1.7-1.6v-3.8h.9v3.5c0 .9.4 1.1 1 1.1 1.1 0 1.4-1 1.4-1.7v-2.9h.9v5.2h-.8z"/><path d="m405.5 322h-.9v-7.2h.9v7.2"/><path d="m411.2 318c.1 0 .3 0 .5 0 .7 0 1.3-.3 1.3-1.1 0-.4-.2-1.1-1.3-1.1-1.2 0-1.3 1-1.4 1.5h-.9c0-1 .4-2.3 2.3-2.3 1.4 0 2.2.8 2.2 1.8 0 .9-.5 1.3-.9 1.4.7.2 1.2.7 1.2 1.6 0 1.1-.7 2.3-2.5 2.3-.5 0-1-.1-1.3-.3-.8-.4-1-1.2-1-2h.9c0 .7.2 1.5 1.5 1.5.9 0 1.5-.5 1.5-1.4 0-1.2-1-1.3-1.6-1.3-.1 0-.3 0-.4 0v-.6z"/><path d="m417.3 322.2c-2 0-2.4-2.1-2.4-3.6 0-1.5.4-3.6 2.4-3.6s2.4 2.1 2.4 3.6c0 1.5-.4 3.6-2.4 3.6m0-6.4c-1 0-1.5 1.1-1.5 2.8 0 1.8.5 2.8 1.5 2.8s1.5-1.1 1.5-2.8c0-1.8-.5-2.8-1.5-2.8"/><path d="m490.8 319.9l-.8 2.1h-1l2.7-7.2h1.1l2.6 7.2h-1.1l-.7-2.1h-2.8m2.5-.8l-1.1-3.2-1.1 3.2h2.2"/><path d="m499.3 322v-.8c-.4.6-.8.9-1.7.9-.8 0-1.7-.4-1.7-1.6v-3.8h.9v3.5c0 .9.4 1.1 1 1.1 1.1 0 1.4-1 1.4-1.7v-2.9h.9v5.2h-.8z"/><path d="m505.8 321.6c0 .7 0 2.6-2.4 2.6-.6 0-1.8-.2-2-1.6h.9c.2.8 1 .8 1.2.8 1.5 0 1.5-1.2 1.5-1.8v-.2c-.2.4-.7.7-1.4.7-1.8 0-2.3-1.7-2.3-2.9 0-1.5.8-2.6 2.2-2.6.9 0 1.3.6 1.6.9v-.7h.8v4.8zm-2.2-.2c.6 0 1.4-.4 1.4-1.8 0-.8-.1-2.2-1.4-2.2-1.4 0-1.4 1.3-1.4 2 0 1.1.4 2 1.4 2"/><path d="m512.8 322h-.9v-5h-1.6v-.7c1.1-.1 1.6-.2 1.9-1.3h.7v7z"/></g><g fill="none" stroke="#cccbcb" stroke-width=".984" stroke-miterlimit="10"><path d="m122.1 306.5v3.9"/><path d="m217.1 306.5v3.9"/><path d="m312.6 306.5v3.9"/><path d="m407.6 306.5v3.9"/><path d="m502.6 306.5v3.9"/></g></svg>